PathFileType	4	(X/Y/Z)	Patient4_TMGait_0pt8_01_right_10.trc.trc
DataRate	CameraRate	NumFrames	NumMarkers	Units	OrigDataRate	OrigDataStartFrame	OrigNumFrames
85.889570552147	85.889570552147	4	33	mm	85.889570552147	106	       141
Frame#	Time	Sacral			L.Shoulder			Chest			R.Shoulder			Neck			R.ASIS			L.ASIS			R.Thigh.Superior			R.Thigh.Lateral			R.Thigh.Inferior			R.Patella			L.Thigh.Superior			L.Thigh.Lateral			L.Thigh.Inferior			L.Patella			L.Shank.Superior			L.Shank.Lateral			L.Shank.Inferior			R.Shank.Superior			R.Shank.Lateral			R.Shank.Inferior			R.Heel			R.Midfoot.Superior			R.Midfoot.Lateral			R.Toe			L.Heel			L.Midfoot.Lateral			L.Midfoot.Superior			L.Toe			L.Elbow			L.Wrist			R.Elbow			R.Wrist			
		X1	Y1	Z1	X2	Y2	Z2	X3	Y3	Z3	X4	Y4	Z4	X5	Y5	Z5	X6	Y6	Z6	X7	Y7	Z7	X8	Y8	Z8	X9	Y9	Z9	X10	Y10	Z10	X11	Y11	Z11	X12	Y12	Z12	X13	Y13	Z13	X14	Y14	Z14	X15	Y15	Z15	X16	Y16	Z16	X17	Y17	Z17	X18	Y18	Z18	X19	Y19	Z19	X20	Y20	Z20	X21	Y21	Z21	X22	Y22	Z22	X23	Y23	Z23	X24	Y24	Z24	X25	Y25	Z25	X26	Y26	Z26	X27	Y27	Z27	X28	Y28	Z28	X29	Y29	Z29	X30	Y30	Z30	X31	Y31	Z31	X32	Y32	Z32	X33	Y33	Z33	

106	12.162500000000	843.860976755467	1017.366479000147	437.604865167492	1038.934366827088	1447.698057624865	278.060645717822	1131.480559216290	1370.681437902705	442.064694393510	1038.289223333107	1437.881076759851	613.964803974621	1014.527274800640	1502.437516935472	435.337359161424	1063.555451462651	951.833148419111	567.150042332949	1068.220497258931	968.537707589217	291.473943532242	1154.463663740352	795.570448179828	540.874332115439	1124.344226893675	672.657633094272	616.383692934627	1219.498654608534	639.613022663849	540.673268629432	1245.859139739340	528.426096177078	565.696495888619	1091.539785154028	745.267117500771	327.860935118139	988.792741523649	638.996071056464	264.410144932952	1057.874875641986	553.257199352244	333.566238129006	1049.574168395077	486.187181189685	345.141588258113	1021.545114203273	416.025884605539	336.768319601026	927.283108197973	304.971130156409	289.544656599593	972.159733708087	193.183541542868	362.966629099013	1175.401276646809	447.692056475512	571.639727709852	1052.891662314185	398.469498254976	622.177857208034	1055.249777323710	286.037726193730	578.483384851742	866.174082670948	206.383658015426	532.315630349887	1032.502664219268	161.744797153730	596.471802318134	919.270922858916	154.130516311698	615.563670363292	1098.555928936731	51.932724263492	635.021753474005	837.971606786046	39.974133600935	409.078143268219	909.645997201328	36.652539803007	326.605400600454	994.855203415031	96.892924156828	351.293296783691	1121.619333176666	40.617472730213	318.188286549278	1072.796248758588	1113.451450432816	124.691557440602	1287.299998657451	966.080611027870	143.085635068464	963.539539808519	1087.272510620179	702.079636116696	996.465449197190	827.839064337049	705.408087958273	
107	12.174142857143	842.315892468034	1017.196906496743	436.972546345220	1040.566178602843	1447.557765626765	278.146107854363	1131.468212091758	1369.955410568837	442.771430832671	1037.282938561821	1437.440567702182	613.980070689459	1015.104479902782	1502.152783136582	435.285665243157	1061.800114631611	952.263354779795	567.683582824720	1067.357526458810	968.217142748046	291.769954370075	1154.346465059364	798.486960546195	541.766416661420	1125.393912346093	674.551143142272	616.885755395631	1221.608238949790	643.151773166143	542.137589120778	1249.937317194845	533.615085187712	566.751815521046	1087.582708964740	743.784079763650	328.639749970246	983.597428881449	638.918546378959	264.352072150249	1050.831716465703	552.217158043368	333.848563216205	1041.580902753013	485.575029572789	345.319460642458	1013.461928274889	415.697713539937	336.905600739836	918.942557989134	304.984888825015	289.485758520945	963.151339335110	193.062331049128	363.086961395271	1183.773305921878	450.330638789061	572.630478785496	1065.281402126966	393.958056911989	624.308774436296	1073.803161521247	281.879551732552	580.222099985472	889.513319356913	190.663922841369	535.740730549604	1058.884837652697	157.094702228467	598.808994175791	946.474171631031	142.539293666566	618.795185915109	1131.820886957085	51.866490690376	637.118445736832	828.594369250489	40.034769240122	409.027496132676	900.277054912549	36.661222457443	326.613586915440	985.508093691832	96.902058347737	351.298245970588	1112.248983013590	40.587694954879	318.163619346017	1079.898507251201	1115.250426753510	123.533821460927	1301.785749311941	980.065540435521	144.226864867209	952.632407213861	1089.447519626431	700.932843565150	970.682273414597	828.680797995003	704.997787695952	
108	12.185785714286	840.918930658819	1016.877966362029	436.512466634690	1042.119224726747	1447.243995468772	278.389836807392	1131.521088125249	1369.044581136791	443.538919513653	1036.475415987882	1436.828047083763	614.132961841160	1015.749540521631	1501.679506470751	435.385375250469	1060.265939717557	952.462373078309	568.227737406765	1066.394882820800	967.686996039945	292.088730691079	1153.868753374289	800.511724234579	542.626131154240	1125.561743475689	675.687911579733	617.379581020588	1222.537730448253	645.507690596589	543.464865797014	1252.565045799606	537.916863890467	567.565149887458	1083.683239094528	742.211664545568	329.303831969961	978.392193901546	638.742575223002	264.332689097374	1043.862884373299	551.117404360300	334.087531519059	1033.715096504808	484.917294569736	345.462452196996	1005.433486634610	415.315554736201	337.054394919412	910.619677503428	304.963751409629	289.469605179140	954.161016964737	192.902851321458	363.237049375628	1191.067284279669	452.394054720760	573.595605301729	1077.649421626872	388.742522716082	627.065720482699	1092.479290856964	277.472843989509	582.453406342764	914.087295124598	174.454468820634	540.517240808081	1085.921833684673	152.455401086621	601.606183624546	975.013601145432	130.821117526813	623.045481574628	1165.773920522660	52.539012261298	639.330234394331	819.223958889777	40.074622873592	409.004502783193	890.899320204386	36.664136571844	326.639091304255	976.151991315969	96.895018532499	351.334210335114	1102.869076116645	40.561691183890	318.150120564849	1086.701038996326	1116.899064074834	122.715259333441	1315.132765939865	994.089955592316	145.711824976145	941.360216488392	1092.035729935087	699.927906049085	946.072424544339	830.899144778948	704.754763894227	
109	12.197428571429	839.715897230597	1016.395057561448	436.237310290763	1043.556839396914	1446.742657463537	278.776151500699	1131.626383177054	1367.956298157505	444.352289417891	1035.857775184119	1436.055036961840	614.412257079330	1016.449207626569	1501.016774706315	435.623510923985	1058.983875758148	952.412909364553	568.781912474588	1065.363364812740	966.941733530422	292.433679058382	1153.032223552379	801.540632510821	543.437555974687	1124.852666785005	676.026838577368	617.902223894219	1222.238048013596	646.571239230449	544.610422702539	1253.717276158205	541.235665597649	568.109814676231	1079.861320506514	740.546461144660	329.841728748656	973.188736563144	638.466321566373	264.351777718676	1036.988994920126	549.955976755856	334.279231230040	1025.990896138532	484.201169058102	345.566734481639	997.470934900764	414.878306434552	337.203119576656	902.316852667239	304.911643416825	289.486224220429	945.188935385941	192.702971273507	363.405467484004	1197.217599794783	453.866138356140	574.530463387524	1089.892018161244	382.991150542295	630.352626528110	1111.112939990638	273.005389453325	585.087819977345	939.778232269528	158.099920938544	546.375992697339	1113.379379245640	148.101996639610	604.755416385138	1004.667776812275	119.330316444444	628.102019897336	1200.071284105941	54.237680672050	641.607664683377	809.857489716408	40.094072296519	409.008517052199	881.512406757109	36.659467852379	326.679236553721	966.784618346330	96.869452340245	351.395752416587	1093.477942422607	40.536748589754	318.148208315727	1093.218268591423	1118.365736088425	122.215513238580	1327.331521951351	1007.988395460543	147.500788780123	929.868143109680	1095.057842978408	699.080518640817	922.740985892726	834.245767280831	704.685256042157	
